<svg xmlns="http://www.w3.org/2000/svg" xmlns:xlink="http://www.w3.org/1999/xlink" fill="none" version="1.1" width="7" height="14" viewBox="0 0 7 14"><defs><clipPath id="master_svg0_48_09409"><rect x="0" y="0" width="7" height="14" rx="0"/></clipPath></defs><g clip-path="url(#master_svg0_48_09409)"><g transform="matrix(1,0,0,-1,0,26.8515625)"><g><path d="M6.75391,20.17969125Q7,19.90625125,7,19.55078125Q7,19.19531125,6.75391,18.92187125L1.50391,13.67187525Q1.23047,13.42578125,0.875,13.42578125Q0.519531,13.42578125,0.246094,13.67187525Q0,13.94531225,0,14.30078125Q0,14.65625125,0.246094,14.92969125L4.89453,19.55078125L0.246094,24.17188125Q0,24.44528125,0,24.80078125Q0,25.15628125,0.246094,25.42968125Q0.519531,25.67578125,0.875,25.67578125Q1.23047,25.67578125,1.50391,25.42968125L6.75391,20.17969125Z" fill="#9CA3AF" fill-opacity="1" style="mix-blend-mode:passthrough"/></g></g></g></svg>