<svg xmlns="http://www.w3.org/2000/svg" xmlns:xlink="http://www.w3.org/1999/xlink" fill="none" version="1.1" width="13.945556640625" height="12.25" viewBox="0 0 13.945556640625 12.25"><g transform="matrix(1,0,0,-1,0,24.5)"><g><path d="M13.9455,18.8125Q13.9183,17.22656,12.9922,15.94141Q12.0661,14.65625,10.4864,13.89062Q8.93385,13.152344,6.97276,13.125Q5.44747,13.125,4.14008,13.61719Q3.62257,13.234375,2.66926,12.769531Q1.63424,12.3046875,0.435798,12.25Q0.163424,12.25,0.0272374,12.523438Q-0.0544747,12.796875,0.136187,12.988281L0.136187,13.015625L0.163424,13.042969Q0.217899,13.097656,0.299611,13.207031Q0.490272,13.39844,0.708171,13.78125Q1.17121,14.49219,1.30739,15.50391Q0.0272374,16.92578,0,18.8125Q0.0272374,20.39844,0.953307,21.683590000000002Q1.87938,22.9688,3.45914,23.7344Q5.01167,24.4727,6.97276,24.5Q8.93385,24.4727,10.4864,23.7344Q12.0661,22.9688,12.9922,21.683590000000002Q13.9183,20.39844,13.9455,18.8125Z" fill="#000000" fill-opacity="1" style="mix-blend-mode:passthrough"/></g></g></svg>