<svg xmlns="http://www.w3.org/2000/svg" xmlns:xlink="http://www.w3.org/1999/xlink" fill="none" version="1.1" width="13.836064338684082" height="14" viewBox="0 0 13.836064338684082 14"><g transform="matrix(1,0,0,-1,0,28)"><path d="M13.8033,23.433590000000002Q13.918,23.05078,13.6311,22.777340000000002L12.3689,21.68359Q12.4262,21.35547,12.4262,21Q12.4262,20.64453,12.3689,20.31641L13.6311,19.22266Q13.918,18.94922,13.8033,18.56641Q13.6025,18.07422,13.3443,17.60938L13.2008,17.39062Q12.9139,16.95312,12.5697,16.54297Q12.2828,16.24219,11.8811,16.35156L10.2746,16.84375Q9.70082,16.40625,9.01229,16.16016L8.66803,14.574219Q8.55328,14.191406,8.12295,14.109375Q7.54918,14,6.91803,14Q6.28688,14,5.68443,14.109375Q5.28279,14.191406,5.16803,14.574219L4.82377,16.16016Q4.13525,16.40625,3.56148,16.84375L1.95492,16.35156Q1.55328,16.24219,1.26639,16.54297Q0.893443,16.95312,0.635246,17.39062L0.491803,17.60938Q0.233607,18.07422,0.0327869,18.53906Q-0.0819672,18.94922,0.204918,19.22266L1.46721,20.28906Q1.40984,20.64453,1.40984,21Q1.40984,21.35547,1.46721,21.68359L0.204918,22.777340000000002Q-0.0819672,23.05078,0.0327869,23.433590000000002Q0.233607,23.92578,0.491803,24.3906L0.635246,24.6094Q0.893443,25.0469,1.26639,25.457Q1.55328,25.7578,1.95492,25.648400000000002L3.56148,25.1562Q4.13525,25.5937,4.82377,25.8672L5.16803,27.425800000000002Q5.28279,27.8086,5.71311,27.8906Q6.28688,28,6.91803,28Q7.54918,28,8.15164,27.8906Q8.55328,27.8086,8.66803,27.425800000000002L9.01229,25.8672Q9.70082,25.5937,10.2746,25.1562L11.8811,25.648400000000002Q12.2828,25.7578,12.5697,25.457Q12.9426,25.0469,13.2295,24.6094L13.3443,24.3906Q13.6025,23.92578,13.8033,23.433590000000002ZM6.91803,18.8125Q8.20902,18.83984,8.89754,19.90625Q9.52869,21,8.89754,22.09375Q8.20902,23.160159999999998,6.91803,23.1875Q5.62705,23.160159999999998,4.93852,22.09375Q4.30738,21,4.93852,19.90625Q5.62705,18.83984,6.91803,18.8125Z" fill="#9CA3AF" fill-opacity="1" style="mix-blend-mode:passthrough"/></g></svg>