<svg xmlns="http://www.w3.org/2000/svg" xmlns:xlink="http://www.w3.org/1999/xlink" fill="none" version="1.1" width="14" height="14" viewBox="0 0 14 14"><g transform="matrix(1,0,0,-1,0,28)"><g><path d="M1.86667,28Q1.07917,27.9727,0.554167,27.4805Q0.0291667,26.988300000000002,0,26.25L0,15.75Q0.0291667,15.01172,0.554167,14.519531Q1.07917,14.0273438,1.86667,14L10.2667,14Q11.0542,14.0273438,11.5792,14.519531Q12.1042,15.01172,12.1333,15.75L12.1333,26.25Q12.1042,26.988300000000002,11.5792,27.4805Q11.0542,27.9727,10.2667,28L1.86667,28ZM5.13333,20.125L7,20.125L5.13333,20.125L7,20.125Q7.99167,20.09766,8.6625,19.49609Q9.30417,18.86719,9.33333,17.9375Q9.30417,17.52734,8.86667,17.5L3.26667,17.5Q2.82917,17.52734,2.8,17.9375Q2.82917,18.86719,3.47083,19.49609Q4.14167,20.09766,5.13333,20.125ZM4.2,22.75Q4.22917,23.73438,5.13333,24.2539Q6.06667,24.7461,7,24.2539Q7.90417,23.73438,7.93333,22.75Q7.90417,21.76563,7,21.24609Q6.06667,20.75391,5.13333,21.24609Q4.22917,21.76563,4.2,22.75ZM14,25.8125Q13.9708,26.2227,13.5333,26.25Q13.0958,26.2227,13.0667,25.8125L13.0667,24.0625Q13.0958,23.652340000000002,13.5333,23.625Q13.9708,23.652340000000002,14,24.0625L14,25.8125ZM13.5333,22.75Q13.0958,22.722659999999998,13.0667,22.3125L13.0667,20.5625Q13.0958,20.15234,13.5333,20.125Q13.9708,20.15234,14,20.5625L14,22.3125Q13.9708,22.722659999999998,13.5333,22.75ZM14,18.8125Q13.9708,19.22266,13.5333,19.25Q13.0958,19.22266,13.0667,18.8125L13.0667,17.0625Q13.0958,16.65234,13.5333,16.625Q13.9708,16.65234,14,17.0625L14,18.8125Z" fill="#9CA3AF" fill-opacity="1" style="mix-blend-mode:passthrough"/></g></g></svg>