<svg xmlns="http://www.w3.org/2000/svg" xmlns:xlink="http://www.w3.org/1999/xlink" fill="none" version="1.1" width="29.88330078125" height="30" viewBox="0 0 29.88330078125 30"><g transform="matrix(1,0,0,-1,0,60)"><g><path d="M20.2529,58.5352Q20.6031,59.414100000000005,21.3619,59.7656Q22.179,60.1172,23.0545,59.9414L28.1907,58.5352Q29.7665,57.949200000000005,29.8833,56.25Q29.8249,48.925799999999995,26.323,43.0078Q22.821,37.08984,16.9261,33.57422Q11.0311,30.0585938,3.73541,30Q2.0428,30.117188,1.45914,31.69922L0.0583658,36.85547Q-0.116732,37.73437,0.233463,38.55469Q0.583658,39.31641,1.45914,39.66797L7.06226,42.0117Q8.63813,42.5391,9.74708,41.3086L12.0817,38.4375Q15.1751,39.90234,17.6265,42.3047Q20.0195,44.7656,21.4786,47.8711L18.6187,50.2148Q17.393,51.3281,17.9183,52.9102L20.2529,58.5352Z" fill="#000000" fill-opacity="1" style="mix-blend-mode:passthrough"/></g></g></svg>