<svg xmlns="http://www.w3.org/2000/svg" xmlns:xlink="http://www.w3.org/1999/xlink" fill="none" version="1.1" width="14" height="14" viewBox="0 0 14 14"><g transform="matrix(1,0,0,-1,0,28)"><g><path d="M14,21Q14,20.97266,14,20.97266Q14,20.94531,14,20.91797Q13.9727,20.17969,13.3984,19.71484Q12.8516,19.25,12.0859,19.25L9.40625,19.25Q8.85938,19.22266,8.47656,18.86719Q8.12109,18.48438,8.09375,17.9375Q8.09375,17.80078,8.12109,17.66406Q8.20312,17.28125,8.39453,16.89844Q8.39453,16.87109,8.42188,16.84375Q8.69531,16.29688,8.75,15.69531Q8.75,15.03906,8.33984,14.546875Q7.95703,14.0546875,7.30078,14Q7.13672,14,7,14Q5.03125,14.0273438,3.47266,14.957031Q1.88672,15.88672,0.957031,17.47266Q0.0273438,19.03125,0,21Q0.0273438,22.96875,0.957031,24.5273Q1.88672,26.113300000000002,3.47266,27.043Q5.03125,27.9727,7,28Q8.96875,27.9727,10.5273,27.043Q12.1133,26.113300000000002,13.043,24.5273Q13.9727,22.96875,14,21ZM3.5,20.125Q3.5,20.50781,3.25391,20.75391Q3.00781,21,2.625,21Q2.24219,21,1.99609,20.75391Q1.75,20.50781,1.75,20.125Q1.75,19.74219,1.99609,19.49609Q2.24219,19.25,2.625,19.25Q3.00781,19.25,3.25391,19.49609Q3.5,19.74219,3.5,20.125ZM3.5,22.75Q3.88281,22.75,4.12891,22.996090000000002Q4.375,23.24219,4.375,23.625Q4.375,24.0078,4.12891,24.2539Q3.88281,24.5,3.5,24.5Q3.11719,24.5,2.87109,24.2539Q2.625,24.0078,2.625,23.625Q2.625,23.24219,2.87109,22.996090000000002Q3.11719,22.75,3.5,22.75ZM7.875,25.375Q7.875,25.7578,7.62891,26.0039Q7.38281,26.25,7,26.25Q6.61719,26.25,6.37109,26.0039Q6.125,25.7578,6.125,25.375Q6.125,24.9922,6.37109,24.7461Q6.61719,24.5,7,24.5Q7.38281,24.5,7.62891,24.7461Q7.875,24.9922,7.875,25.375ZM10.5,22.75Q10.8828,22.75,11.1289,22.996090000000002Q11.375,23.24219,11.375,23.625Q11.375,24.0078,11.1289,24.2539Q10.8828,24.5,10.5,24.5Q10.1172,24.5,9.87109,24.2539Q9.625,24.0078,9.625,23.625Q9.625,23.24219,9.87109,22.996090000000002Q10.1172,22.75,10.5,22.75Z" fill="#000000" fill-opacity="1" style="mix-blend-mode:passthrough"/></g></g></svg>