<svg xmlns="http://www.w3.org/2000/svg" xmlns:xlink="http://www.w3.org/1999/xlink" fill="none" version="1.1" width="24" height="24.005859375" viewBox="0 0 24 24.005859375"><g transform="matrix(1,0,0,-1,0,48.01171875)"><g><path d="M16.5,36.008759375Q16.5,34.461959375,16.3594,33.008789375L7.64062,33.008789375Q7.5,34.461959375,7.5,36.008759375Q7.5,37.555659375,7.64062,39.008759375L16.3594,39.008759375Q16.5,37.555659375,16.5,36.008759375ZM17.8594,39.008759375L23.625,39.008759375L17.8594,39.008759375L23.625,39.008759375Q24,37.555659375,24,36.008759375Q24,34.461959375,23.625,33.008789375L17.8594,33.008789375Q18,34.461959375,18,36.008759375Q18,37.555659375,17.8594,39.008759375ZM23.1094,40.508759375L17.6719,40.508759375L23.1094,40.508759375L17.6719,40.508759375Q16.9219,45.102559375,15.0469,47.633759375Q17.8594,46.836959375,19.9688,45.008759375Q22.0312,43.133759375,23.1094,40.508759375ZM16.125,40.508759375L7.875,40.508759375L16.125,40.508759375L7.875,40.508759375Q8.29688,43.086959375,9.14062,44.961959375Q9.89062,46.602559375,10.6875,47.352559375Q11.4844,48.055659375000005,12,48.008759375Q12.5156,48.055659375000005,13.3125,47.352559375Q14.1094,46.602559375,14.8594,44.961959375Q15.7031,43.086959375,16.125,40.508759375ZM6.32812,40.508759375L0.890625,40.508759375L6.32812,40.508759375L0.890625,40.508759375Q1.96875,43.133759375,4.03125,45.008759375Q6.14062,46.836959375,8.95312,47.633759375Q7.07812,45.102559375,6.32812,40.508759375ZM0.375,39.008759375L6.14062,39.008759375L0.375,39.008759375L6.14062,39.008759375Q6,37.555659375,6,36.008759375Q6,34.461959375,6.14062,33.008789375L0.375,33.008789375Q0,34.461959375,0,36.008759375Q0,37.555659375,0.375,39.008759375ZM9.14062,27.055659375Q8.29688,28.930659375,7.875,31.508789375L16.125,31.508789375Q15.7031,28.930659375,14.8594,27.055659375Q14.1094,25.415039375,13.3125,24.665039375Q12.5156,23.961914075,12,24.008789065Q11.4844,23.961914075,10.6875,24.665039375Q9.89062,25.415039375,9.14062,27.055659375ZM6.32812,31.508789375Q7.07812,26.915039375,8.95312,24.383789375Q6.14062,25.180659375,4.03125,27.008789375Q1.96875,28.883789375,0.890625,31.508789375L6.32812,31.508789375ZM23.1094,31.508789375Q22.0312,28.883789375,19.9688,27.008789375Q17.8594,25.180659375,15.0938,24.383789375Q16.9219,26.915039375,17.6719,31.508789375L23.1562,31.508789375L23.1094,31.508789375Z" fill="#000000" fill-opacity="1" style="mix-blend-mode:passthrough"/></g></g></svg>