<svg xmlns="http://www.w3.org/2000/svg" xmlns:xlink="http://www.w3.org/1999/xlink" fill="none" version="1.1" width="18.46875" height="24" viewBox="0 0 18.46875 24"><defs><clipPath id="master_svg0_48_08696"><rect x="0" y="0" width="18.46875" height="24" rx="0"/></clipPath></defs><g clip-path="url(#master_svg0_48_08696)"><g transform="matrix(1,0,0,-1,0,49.03460693359375)"><g><path d="M15.09376099395752,46.409603466796874Q15.51566099395752,47.48770346679687,14.624960993957519,48.23770346679687Q13.64066099395752,48.847103466796874,12.749960993957519,48.144003466796875L0.7499999939575195,37.644003466796875Q-6.042480460433097e-9,36.94080346679688,0.32812519395751955,36.00330346679688Q0.7499999939575195,35.06580346679688,1.7343709939575196,35.019003466796875L6.984370993957519,35.019003466796875L3.3750009939575194,26.628353466796874Q2.9531209939575196,25.550223466796876,3.8437509939575194,24.800227466796876Q4.828120993957519,24.190852466796876,5.71875099395752,24.893977466796876L17.71876099395752,35.394003466796875Q18.46876099395752,36.097103466796874,18.14066099395752,37.034603466796874Q17.76566099395752,37.972103466796874,16.73436099395752,38.019003466796875L11.53126099395752,38.019003466796875L15.09376099395752,46.409603466796874Z" fill="#000000" fill-opacity="1" style="mix-blend-mode:passthrough"/></g></g></g></svg>