<svg xmlns="http://www.w3.org/2000/svg" xmlns:xlink="http://www.w3.org/1999/xlink" fill="none" version="1.1" width="30" height="29.498437881469727" viewBox="0 0 30 29.498437881469727"><g transform="matrix(1,0,0,-1,0,58.99687576293945)"><path d="M2.8125,43.99683788146973Q2.92969,49.153137881469725,6.38672,52.610137881469726Q9.84375,56.06723788146972,15,56.18433788146973Q17.8125,56.18433788146973,20.1562,55.012537881469726Q22.5586,53.89923788146973,24.2578,51.907037881469726Q25.1953,51.028137881469725,26.25,51.78983788146972Q27.1289,52.72733788146972,26.3672,53.782037881469726Q24.3164,56.18433788146973,21.3867,57.590637881469725Q18.457,58.99683788146973,15,58.99683788146973Q10.7812,58.93823788146973,7.44141,56.946137881469724Q4.04297,54.95393788146973,2.05078,51.55543788146973Q0.0585938,48.215637881469725,0,43.99683788146973L0,41.653137881469725Q0.117188,40.36403788146973,1.40625,40.24683788146973Q2.69531,40.36403788146973,2.8125,41.653137881469725L2.8125,43.99683788146973ZM29.707,47.10233788146972Q29.2969,48.33283788146973,28.0078,48.157037881469726Q26.7773,47.80543788146973,26.9531,46.51643788146973Q27.1875,45.28593788146973,27.1875,43.99683788146973L27.1875,41.653137881469725Q27.3047,40.36403788146973,28.5938,40.24683788146973Q29.8828,40.36403788146973,30,41.653137881469725L30,43.99683788146973Q30,45.57893788146973,29.707,47.10233788146972ZM15,54.30933788146973Q13.3008,54.30933788146973,11.8359,53.782037881469726Q11.1328,53.547637881469726,11.0156,52.903137881469725Q10.8398,52.258637881469724,11.3086,51.672637881469726Q12.0117,50.969537881469726,13.0664,51.262537881469726Q14.0039,51.49683788146973,15,51.49683788146973Q18.1641,51.43823788146973,20.332,49.32893788146973Q22.4414,47.16093788146973,22.5,43.99683788146973L22.5,42.532037881469726Q22.5,40.30543788146973,22.2656,38.13749788146973Q22.207,37.43437788146973,22.6172,36.96562788146973Q22.9688,36.49687788146973,23.6719,36.49687788146973Q24.7852,36.555467881469724,25.0195,37.66874788146973Q25.3125,40.071137881469724,25.3125,42.532037881469726L25.3125,43.99683788146973Q25.1953,48.39143788146973,22.3242,51.262537881469726Q19.3945,54.19223788146972,15,54.30933788146973ZM8.84766,50.26643788146973Q8.37891,50.735137881469726,7.85156,50.793737881469724Q7.26562,50.793737881469724,6.85547,50.325037881469726Q4.74609,47.62973788146972,4.6875,43.99683788146973L4.6875,42.532037881469726Q4.6875,40.422637881469726,4.21875,38.31327788146973Q4.10156,37.610157881469725,4.51172,37.08281788146973Q4.92188,36.49687788146973,5.625,36.49687788146973Q6.62109,36.555467881469724,6.91406,37.492967881469724Q7.5,40.012537881469726,7.5,42.532037881469726L7.5,43.99683788146973Q7.55859,46.39923788146973,8.84766,48.27423788146973Q9.49219,49.32893788146973,8.84766,50.26643788146973ZM15,49.62183788146973Q12.5977,49.56323788146973,11.0156,47.981237881469724Q9.43359,46.39923788146973,9.375,43.99683788146973L9.375,42.532037881469726Q9.375,39.367967881469724,8.55469,36.321097881469726Q8.4375,35.67656788146973,8.78906,35.149217881469724Q9.14062,34.62187788146973,9.84375,34.62187788146973Q10.7227,34.680467881469724,11.0156,35.50077788146973Q11.9531,38.95781788146972,11.9531,42.532037881469726L11.9531,43.99683788146973Q12.0117,45.28593788146973,12.832,46.16483788146972Q13.7109,46.985137881469726,15,47.043737881469724Q16.2891,46.985137881469726,17.168,46.16483788146972Q17.9883,45.28593788146973,18.0469,43.99683788146973L18.0469,42.532037881469726Q18.0469,39.367967881469724,17.4609,36.203907881469725Q17.3438,35.55937788146973,17.6953,35.09062788146973Q18.1055,34.62187788146973,18.6914,34.62187788146973Q19.6875,34.680467881469724,19.9219,35.617967881469724Q20.625,39.016407881469725,20.625,42.532037881469726L20.625,43.99683788146973Q20.5664,46.39923788146973,18.9844,47.981237881469724Q17.4023,49.56323788146973,15,49.62183788146973ZM16.4062,43.99683788146973Q16.2891,45.28593788146973,15,45.403137881469725Q13.7109,45.28593788146973,13.5938,43.99683788146973L13.5938,42.532037881469726Q13.5938,37.19999788146973,11.7188,32.27812788146973L11.3672,31.399217881469728Q11.0156,30.110156881469727,12.1289,29.582812781469727Q13.418,29.231249881469726,13.9453,30.344531881469727L14.2969,31.282027881469727Q16.4062,36.73124788146973,16.4062,42.532037881469726L16.4062,43.99683788146973Z" fill="#000000" fill-opacity="1" style="mix-blend-mode:passthrough"/></g></svg>