<svg xmlns="http://www.w3.org/2000/svg" xmlns:xlink="http://www.w3.org/1999/xlink" fill="none" version="1.1" width="37.5" height="30" viewBox="0 0 37.5 30"><g transform="matrix(1,0,0,-1,0,60)"><g><path d="M8.4375,60Q11.0742,59.9414,12.4805,57.6562Q13.7695,55.3125,12.4805,52.9688Q11.0742,50.6836,8.4375,50.625Q5.80078,50.6836,4.39453,52.9688Q3.10547,55.3125,4.39453,57.6562Q5.80078,59.9414,8.4375,60ZM30,60Q32.6367,59.9414,34.043,57.6562Q35.332,55.3125,34.043,52.9688Q32.6367,50.6836,30,50.625Q27.3633,50.6836,25.957,52.9688Q24.668,55.3125,25.957,57.6562Q27.3633,59.9414,30,60ZM0,42.4805Q0.0585938,45.1758,1.81641,46.9336Q3.57422,48.6914,6.26953,48.75L8.73047,48.75Q10.1367,48.75,11.3672,48.164100000000005Q11.25,47.5195,11.25,46.875Q11.3672,43.418,13.7695,41.25L1.23047,41.25Q0.117188,41.3672,0,42.4805ZM23.7305,41.25Q26.1328,43.418,26.25,46.875Q26.25,47.5195,26.1328,48.164100000000005Q27.3633,48.75,28.7695,48.75L31.2305,48.75Q33.9258,48.6914,35.6836,46.9336Q37.4414,45.1758,37.5,42.4805Q37.3828,41.3672,36.2695,41.25L23.7305,41.25ZM13.125,46.875Q13.125,48.398399999999995,13.8867,49.6875Q14.6484,50.976600000000005,15.9375,51.738299999999995Q17.2852,52.5,18.75,52.5Q20.2148,52.5,21.5625,51.738299999999995Q22.8516,50.976600000000005,23.6133,49.6875Q24.375,48.398399999999995,24.375,46.875Q24.375,45.3516,23.6133,44.0625Q22.8516,42.7734,21.5625,42.0117Q20.2148,41.25,18.75,41.25Q17.2852,41.25,15.9375,42.0117Q14.6484,42.7734,13.8867,44.0625Q13.125,45.3516,13.125,46.875ZM7.5,31.58203Q7.55859,34.86328,9.78516,37.08984Q12.0117,39.31641,15.293,39.375L22.207,39.375Q25.4883,39.31641,27.7148,37.08984Q29.9414,34.86328,30,31.58203Q29.8828,30.117188,28.418,30L9.08203,30Q7.61719,30.117188,7.5,31.58203Z" fill="#000000" fill-opacity="1" style="mix-blend-mode:passthrough"/></g></g></svg>