<svg xmlns="http://www.w3.org/2000/svg" xmlns:xlink="http://www.w3.org/1999/xlink" fill="none" version="1.1" width="26.25" height="30" viewBox="0 0 26.25 30"><defs><clipPath id="master_svg0_48_09037"><rect x="0" y="0" width="26.25" height="30" rx="0"/></clipPath></defs><g clip-path="url(#master_svg0_48_09037)"><g transform="matrix(1,0,0,-1,0,61.2890625)"><g><path d="M8.4375,52.20703125L8.4375,49.39453125L8.4375,52.20703125L8.4375,49.39453125L17.8125,49.39453125L17.8125,52.20703125Q17.7539,54.19923125,16.4648,55.54683125Q15.1172,56.83593125,13.125,56.89453125Q11.1328,56.83593125,9.78516,55.54683125Q8.49609,54.19923125,8.4375,52.20703125ZM4.6875,49.39453125L4.6875,52.20703125L4.6875,49.39453125L4.6875,52.20703125Q4.80469,55.781231250000005,7.14844,58.183631250000005Q9.55078,60.52733125,13.125,60.64453125Q16.6992,60.52733125,19.1016,58.183631250000005Q21.4453,55.781231250000005,21.5625,52.20703125L21.5625,49.39453125L22.5,49.39453125Q24.082,49.33593125,25.1367,48.281231250000005Q26.1914,47.22653125,26.25,45.64453125L26.25,34.39453125Q26.1914,32.81250125,25.1367,31.75781125Q24.082,30.70312505,22.5,30.64453125L3.75,30.64453125Q2.16797,30.70312505,1.11328,31.75781125Q0.0585938,32.81250125,0,34.39453125L0,45.64453125Q0.0585938,47.22653125,1.11328,48.281231250000005Q2.16797,49.33593125,3.75,49.39453125L4.6875,49.39453125Z" fill="#000000" fill-opacity="1" style="mix-blend-mode:passthrough"/></g></g></g></svg>