<svg xmlns="http://www.w3.org/2000/svg" xmlns:xlink="http://www.w3.org/1999/xlink" fill="none" version="1.1" width="36" height="31.5" viewBox="0 0 36 31.5"><g transform="matrix(1,0,0,-1,0,63)"><path d="M26.5781,57.7969L35.2266,49.148399999999995L26.5781,57.7969L35.2266,49.148399999999995Q36,48.375,36,47.25Q36,46.125,35.2266,45.3516L26.5781,36.70312Q25.875,36,24.8906,36Q23.9062,36,23.2031,36.70312Q22.5,37.40625,22.5,38.39062L22.5,42.75L13.5,42.75Q12.5156,42.75,11.8828,43.3828Q11.25,44.0156,11.25,45L11.25,49.5Q11.25,50.4844,11.8828,51.1172Q12.5156,51.75,13.5,51.75L22.5,51.75L22.5,56.1094Q22.5,57.0938,23.2031,57.7969Q23.9062,58.5,24.8906,58.5Q25.875,58.5,26.5781,57.7969ZM11.25,58.5L6.75,58.5L11.25,58.5L6.75,58.5Q5.76562,58.5,5.13281,57.8672Q4.5,57.2344,4.5,56.25L4.5,38.25Q4.5,37.26562,5.13281,36.63281Q5.76562,36,6.75,36L11.25,36Q12.2344,36,12.8672,35.36719Q13.5,34.73438,13.5,33.75Q13.5,32.76562,12.8672,32.132812Q12.2344,31.5,11.25,31.5L6.75,31.5Q3.86719,31.5703125,1.96875,33.46875Q0.0703125,35.36719,0,38.25L0,56.25Q0.0703125,59.1328,1.96875,61.0312Q3.86719,62.9297,6.75,63L11.25,63Q12.2344,63,12.8672,62.3672Q13.5,61.7344,13.5,60.75Q13.5,59.7656,12.8672,59.1328Q12.2344,58.5,11.25,58.5Z" fill="#EF4444" fill-opacity="1" style="mix-blend-mode:passthrough"/></g></svg>