<svg xmlns="http://www.w3.org/2000/svg" xmlns:xlink="http://www.w3.org/1999/xlink" fill="none" version="1.1" width="30" height="30" viewBox="0 0 30 30"><g transform="matrix(1,0,0,-1,0,60)"><g><path d="M4.39453,55.6055L2.40234,57.5977L4.39453,55.6055L2.40234,57.5977Q1.69922,58.2422,0.878906,57.8906Q0.0585938,57.5977,0,56.601600000000005L0,50.1562Q0.117188,48.8672,1.40625,48.75L7.85156,48.75Q8.84766,48.8086,9.14062,49.6289Q9.49219,50.449200000000005,8.84766,51.1523L7.03125,52.9688Q10.1953,56.1328,15,56.25Q19.8047,56.1328,22.9688,52.9688Q26.1328,49.8047,26.25,45Q26.1328,40.1953,22.9688,37.03125Q19.8047,33.86719,15,33.75Q11.3672,33.80859,8.55469,35.74219Q7.91016,36.21094,7.14844,36.09375Q6.44531,35.91797,5.97656,35.27344Q5.50781,34.62891,5.625,33.92578Q5.80078,33.16406,6.44531,32.69531Q10.1367,30.0585938,15,30Q19.2188,30.0585938,22.5586,32.05078Q25.957,34.04297,27.9492,37.44141Q29.9414,40.7812,30,45Q29.9414,49.2188,27.9492,52.5586Q25.957,55.957,22.5586,57.949200000000005Q19.2188,59.9414,15,60Q11.8945,60,9.14062,58.8281Q6.44531,57.6562,4.39453,55.6055ZM15,52.5Q13.7109,52.3828,13.5938,51.0938L13.5938,45Q13.5938,44.4141,14.0039,44.0039L18.2227,39.78516Q19.2188,38.96484,20.2148,39.78516Q21.0352,40.7812,20.2148,41.7773L16.4062,45.5859L16.4062,51.0938Q16.2891,52.3828,15,52.5Z" fill="#000000" fill-opacity="1" style="mix-blend-mode:passthrough"/></g></g></svg>