<svg xmlns="http://www.w3.org/2000/svg" xmlns:xlink="http://www.w3.org/1999/xlink" fill="none" version="1.1" width="37.26708984375" height="30" viewBox="0 0 37.26708984375 30"><g transform="matrix(1,0,0,-1,0,60)"><g><path d="M12.1118,39.375Q17.236,39.49219,20.6716,42.4219Q24.1071,45.293,24.2236,49.6875Q24.1071,54.082,20.6716,56.9531Q17.236,59.8828,12.1118,60Q6.98758,59.8828,3.55202,56.9531Q0.11646,54.082,0,49.6875Q0.0582298,46.2305,2.32919,43.6523Q1.97981,42.7734,1.45575,42.1875Q1.04814,41.6602,0.698758,41.3672Q0.524068,41.1914,0.465839,41.1328Q0.407609,41.0742,0.407609,41.0742L0.349379,41.0742Q-0.11646,40.6641,0.0582298,40.0195Q0.291149,39.43359,0.931677,39.375Q2.91149,39.43359,4.54193,40.0781Q5.35714,40.4297,5.99767,40.7812Q8.73447,39.43359,12.1118,39.375ZM26.087,49.6875Q25.9123,44.6484,22.3602,41.3672Q18.75,38.08594,13.5093,37.55859Q14.6157,34.21875,17.7601,32.16797Q20.9045,30.0585938,25.1553,30Q28.5326,30.0585938,31.2694,31.40625Q31.9099,31.05469,32.7252,30.703125Q34.3556,30.0585938,36.3354,30Q36.9759,30.0585938,37.2089,30.644531Q37.3835,31.28906,36.8595,31.69922L36.8595,31.75781Q36.8012,31.75781,36.8012,31.75781Q36.743,31.81641,36.5683,31.99219Q36.2189,32.28516,35.8113,32.8125Q35.2873,33.45703,34.9379,34.27734Q37.2089,36.85547,37.2671,40.3125Q37.1506,44.4727,34.0062,47.3438Q30.8618,50.2148,26.0287,50.625Q26.087,50.1563,26.087,49.6875Z" fill="#000000" fill-opacity="1" style="mix-blend-mode:passthrough"/></g></g></svg>