<svg xmlns="http://www.w3.org/2000/svg" xmlns:xlink="http://www.w3.org/1999/xlink" fill="none" version="1.1" width="13.922179222106934" height="13.9765625" viewBox="0 0 13.922179222106934 13.9765625"><g transform="matrix(1,0,0,-1,0,27.953125)"><path d="M9.89105,27.4609625L8.55642,26.1210625L9.89105,27.4609625L8.55642,26.1210625L12.0973,22.566402500000002L13.4319,23.9062525Q13.9222,24.425762499999998,13.9222,25.1367625Q13.9222,25.8203625,13.4319,26.3671625L12.3424,27.4609625Q11.8249,27.953162499999998,11.1167,27.953162499999998Q10.4358,27.953162499999998,9.89105,27.4609625ZM7.9572,25.5195625L1.61089,19.1210925L7.9572,25.5195625L1.61089,19.1210925Q1.1751,18.7109425,0.984436,18.1093725L0.0311284,14.8281255Q-0.077821,14.4453125,0.194553,14.1718755Q0.466926,13.8984376,0.848249,14.0078126L4.11673,14.9648435Q4.68872,15.1562525,5.12451,15.5664025L11.4981,21.9648425L7.9572,25.5195625Z" fill="#FFFFFF" fill-opacity="1" style="mix-blend-mode:passthrough"/></g></svg>