<svg xmlns="http://www.w3.org/2000/svg" xmlns:xlink="http://www.w3.org/1999/xlink" fill="none" version="1.1" width="14" height="14" viewBox="0 0 14 14"><g transform="matrix(1,0,0,-1,0,28)"><g><path d="M7,14Q8.91406,14.0273438,10.5,14.929688Q12.0859,15.85938,13.0703,17.5Q14,19.16797,14,21Q14,22.83203,13.0703,24.5Q12.0859,26.1406,10.5,27.0703Q8.91406,27.9727,7,28Q5.08594,27.9727,3.5,27.0703Q1.91406,26.1406,0.929688,24.5Q0,22.83203,0,21Q0,19.16797,0.929688,17.5Q1.91406,15.85938,3.5,14.929688Q5.08594,14.0273438,7,14ZM4.64844,23.48828Q4.8125,23.95312,5.19531,24.226599999999998Q5.57812,24.5,6.09766,24.5L7.68359,24.5Q8.42188,24.4727,8.91406,23.98047Q9.37891,23.51562,9.40625,22.777340000000002Q9.37891,21.79297,8.53125,21.27344L7.65625,20.78125Q7.60156,20.17969,7,20.125Q6.39844,20.17969,6.34375,20.78125L6.34375,21.13672Q6.34375,21.51953,6.67188,21.71094L7.875,22.42188Q8.09375,22.53125,8.09375,22.777340000000002Q8.06641,23.160159999999998,7.68359,23.1875L6.09766,23.1875Q5.93359,23.1875,5.87891,23.05078L5.87891,22.996090000000002Q5.60547,22.44922,5.03125,22.61328Q4.48438,22.85938,4.62109,23.433590000000002L4.64844,23.48828ZM6.125,18.375Q6.125,18.75781,6.37109,19.00391Q6.61719,19.25,7,19.25Q7.38281,19.25,7.62891,19.00391Q7.875,18.75781,7.875,18.375Q7.875,17.99219,7.62891,17.74609Q7.38281,17.5,7,17.5Q6.61719,17.5,6.37109,17.74609Q6.125,17.99219,6.125,18.375Z" fill="#000000" fill-opacity="1" style="mix-blend-mode:passthrough"/></g></g></svg>