<svg xmlns="http://www.w3.org/2000/svg" xmlns:xlink="http://www.w3.org/1999/xlink" fill="none" version="1.1" width="13.95166015625" height="14.0078125" viewBox="0 0 13.95166015625 14.0078125"><g transform="matrix(1,0,0,-1,0,28.015625)"><g><path d="M13.5642,27.8500125Q14,27.5492125,13.9455,27.002312500000002L12.2023,15.6273125Q12.1206,15.217152500000001,11.7665,14.9984015Q11.3852,14.8069955,11.0039,14.9710585L7.73541,16.3109025L5.88327,14.2874645Q5.44747,13.8773085,4.90272,14.0687145Q4.38521,14.3148085,4.35798,14.8890265L4.35798,17.1859025Q4.35798,17.3499625,4.46693,17.459342499999998L9.0428,22.4632425Q9.2607,22.7640225,9.01556,23.064812500000002Q8.74319,23.310902499999997,8.41634,23.092152499999997L2.88716,18.1429325L0.490272,19.346062500000002Q0.0272374,19.5921525,0,20.1116825Q0,20.6312125,0.435798,20.9046525L12.6381,27.9046125Q13.1284,28.150712499999997,13.5642,27.8500125Z" fill="#000000" fill-opacity="1" style="mix-blend-mode:passthrough"/></g></g></svg>