<svg xmlns="http://www.w3.org/2000/svg" xmlns:xlink="http://www.w3.org/1999/xlink" fill="none" version="1.1" width="56.262451171875" height="59.6484375" viewBox="0 0 56.262451171875 59.6484375"><g transform="matrix(1,0,0,-1,0,119.296875)"><g><path d="M28.1312,119.29683750000001Q28.9515,119.29683750000001,29.6546,118.9453375L51.803,109.5703375Q53.7952,108.75003749999999,54.9671,106.9922375Q56.2562,105.23433750000001,56.2562,102.8906375Q56.3734,96.9140375,54.264,88.8281375Q52.1546,80.7422375,46.6468,73.1250375Q41.2562,65.3906275,31.178,60.3515625Q28.1312,58.9453125,25.0843,60.3515625Q15.0062,65.3906275,9.61554,73.1250375Q4.10773,80.7422375,1.99836,88.8281375Q-0.11102,96.9140375,0.00616774,102.8906375Q0.00616774,105.23433750000001,1.29523,106.9922375Q2.46711,108.75003749999999,4.45929,109.5703375L26.6077,118.9453375Q27.3109,119.29683750000001,28.1312,119.29683750000001ZM28.1312,111.4453375L28.1312,67.1484375L28.1312,111.4453375L28.1312,67.1484375Q36.0999,71.2500375,40.6702,77.5781375Q45.1234,83.9062375,46.9984,90.5859375Q48.7562,97.3828375,48.7562,102.7734375L28.1312,111.4453375Z" fill="#000000" fill-opacity="1" style="mix-blend-mode:passthrough"/></g></g></svg>