<svg xmlns="http://www.w3.org/2000/svg" xmlns:xlink="http://www.w3.org/1999/xlink" fill="none" version="1.1" width="37.44599533081055" height="29.999998092651367" viewBox="0 0 37.44599533081055 29.999998092651367"><g transform="matrix(1,0,0,-1,0,59.999996185302734)"><path d="M13.1045,44.99999809265137Q15.1521,44.99999809265137,16.8487,45.996098092651366Q18.5452,46.992198092651364,19.5983,48.74999809265137Q20.5928,50.50779809265137,20.5928,52.49999809265137Q20.5928,54.492198092651364,19.5983,56.24999809265137Q18.5452,58.00779809265137,16.8487,59.00389809265137Q15.1521,59.99999809265137,13.1045,59.99999809265137Q11.0569,59.99999809265137,9.36037,59.00389809265137Q7.66381,58.00779809265137,6.61076,56.24999809265137Q5.61622,54.492198092651364,5.61622,52.49999809265137Q5.61622,50.50779809265137,6.61076,48.74999809265137Q7.66381,46.992198092651364,9.36037,45.996098092651366Q11.0569,44.99999809265137,13.1045,44.99999809265137ZM10.4134,42.18749809265137Q6.02574,42.07029809265137,3.04212,39.140618092651366Q0.117005,36.15233809265137,0,31.757808092651366Q0,30.996092092651367,0.526521,30.527342092651367Q0.99454,29.999998092651367,1.75507,29.999998092651367L24.454,29.999998092651367Q24.6295,29.999998092651367,24.805,29.999998092651367Q21.4704,32.578118092651366,20.1833,35.80077809265137Q18.8378,39.08202809265137,18.7793,41.777298092651364Q17.3167,42.18749809265137,15.7956,42.18749809265137L10.4134,42.18749809265137ZM28.4906,46.75779809265137L21.4704,43.94529809265137L28.4906,46.75779809265137L21.4704,43.94529809265137Q20.6513,43.593698092651366,20.5928,42.656198092651366Q20.5343,40.72269809265137,21.2363,38.320308092651366Q21.8799,35.917968092651364,23.5764,33.691408092651365Q25.3315,31.464838092651366,28.4906,30.11718509265137Q29.0172,29.882811092651366,29.5437,30.11718509265137Q32.7028,31.464838092651366,34.4579,33.691408092651365Q36.1544,35.917968092651364,36.798,38.320308092651366Q37.5,40.72269809265137,37.4415,42.656198092651366Q37.383,43.593698092651366,36.564,43.94529809265137L29.5437,46.75779809265137Q29.0172,46.992198092651364,28.4906,46.75779809265137ZM34.5749,41.71879809265137Q34.4579,39.37499809265137,33.2293,36.972658092651365Q31.9423,34.511718092651364,29.0172,32.92968809265137L29.0172,43.94529809265137L34.5749,41.71879809265137Z" fill="#000000" fill-opacity="1" style="mix-blend-mode:passthrough"/></g></svg>